<svg xmlns="http://www.w3.org/2000/svg" viewBox="0 0 640 480">
  <path fill="#b22234" d="M0 0h640v480H0"/>
  <path fill="#fff" d="M0 37h640v37H0zm0 74h640v37H0zm0 74h640v37H0zm0 74h640v37H0zm0 74h640v37H0zm0 74h640v37H0z"/>
  <path fill="#3c3b6e" d="M0 0h260v259H0"/>
  <g fill="#fff">
    <path d="m26 12 3 9-7-5h9l-8 5zm26 0 3 9-7-5h9l-8 5zm26 0 3 9-7-5h9l-8 5zm26 0 3 9-7-5h9l-8 5zm26 0 3 9-7-5h9l-8 5zm26 0 3 9-7-5h9l-8 5zm26 0 3 9-7-5h9l-8 5zm26 0 3 9-7-5h9l-8 5zm26 0 3 9-7-5h9l-8 5z"/>
    <path d="m13 32 3 9-7-5h9l-8 5zm26 0 3 9-7-5h9l-8 5zm26 0 3 9-7-5h9l-8 5zm26 0 3 9-7-5h9l-8 5zm26 0 3 9-7-5h9l-8 5zm26 0 3 9-7-5h9l-8 5zm26 0 3 9-7-5h9l-8 5zm26 0 3 9-7-5h9l-8 5zm26 0 3 9-7-5h9l-8 5zm26 0 3 9-7-5h9l-8 5z"/>
    <path d="m26 52 3 9-7-5h9l-8 5zm26 0 3 9-7-5h9l-8 5zm26 0 3 9-7-5h9l-8 5zm26 0 3 9-7-5h9l-8 5zm26 0 3 9-7-5h9l-8 5zm26 0 3 9-7-5h9l-8 5zm26 0 3 9-7-5h9l-8 5zm26 0 3 9-7-5h9l-8 5zm26 0 3 9-7-5h9l-8 5z"/>
    <path d="m13 72 3 9-7-5h9l-8 5zm26 0 3 9-7-5h9l-8 5zm26 0 3 9-7-5h9l-8 5zm26 0 3 9-7-5h9l-8 5zm26 0 3 9-7-5h9l-8 5zm26 0 3 9-7-5h9l-8 5zm26 0 3 9-7-5h9l-8 5zm26 0 3 9-7-5h9l-8 5zm26 0 3 9-7-5h9l-8 5zm26 0 3 9-7-5h9l-8 5z"/>
    <path d="m26 92 3 9-7-5h9l-8 5zm26 0 3 9-7-5h9l-8 5zm26 0 3 9-7-5h9l-8 5zm26 0 3 9-7-5h9l-8 5zm26 0 3 9-7-5h9l-8 5zm26 0 3 9-7-5h9l-8 5zm26 0 3 9-7-5h9l-8 5zm26 0 3 9-7-5h9l-8 5zm26 0 3 9-7-5h9l-8 5z"/>
    <path d="m13 112 3 9-7-5h9l-8 5zm26 0 3 9-7-5h9l-8 5zm26 0 3 9-7-5h9l-8 5zm26 0 3 9-7-5h9l-8 5zm26 0 3 9-7-5h9l-8 5zm26 0 3 9-7-5h9l-8 5zm26 0 3 9-7-5h9l-8 5zm26 0 3 9-7-5h9l-8 5zm26 0 3 9-7-5h9l-8 5zm26 0 3 9-7-5h9l-8 5z"/>
    <path d="m26 132 3 9-7-5h9l-8 5zm26 0 3 9-7-5h9l-8 5zm26 0 3 9-7-5h9l-8 5zm26 0 3 9-7-5h9l-8 5zm26 0 3 9-7-5h9l-8 5zm26 0 3 9-7-5h9l-8 5zm26 0 3 9-7-5h9l-8 5zm26 0 3 9-7-5h9l-8 5zm26 0 3 9-7-5h9l-8 5z"/>
    <path d="m13 152 3 9-7-5h9l-8 5zm26 0 3 9-7-5h9l-8 5zm26 0 3 9-7-5h9l-8 5zm26 0 3 9-7-5h9l-8 5zm26 0 3 9-7-5h9l-8 5zm26 0 3 9-7-5h9l-8 5zm26 0 3 9-7-5h9l-8 5zm26 0 3 9-7-5h9l-8 5zm26 0 3 9-7-5h9l-8 5zm26 0 3 9-7-5h9l-8 5z"/>
    <path d="m26 172 3 9-7-5h9l-8 5zm26 0 3 9-7-5h9l-8 5zm26 0 3 9-7-5h9l-8 5zm26 0 3 9-7-5h9l-8 5zm26 0 3 9-7-5h9l-8 5zm26 0 3 9-7-5h9l-8 5zm26 0 3 9-7-5h9l-8 5zm26 0 3 9-7-5h9l-8 5zm26 0 3 9-7-5h9l-8 5z"/>
  </g>
</svg>
